<svg width="16" height="16" viewBox="0 0 16 16" fill="none" xmlns="http://www.w3.org/2000/svg">
<path fill-rule="evenodd" clip-rule="evenodd" d="M3.36175 1.7361C3.3425 0.800356 2.71886 0.0878906 1.70574 0.0878906C0.692353 0.0878906 0.0302124 0.800356 0.0302124 1.7361C0.0302124 2.65152 0.673104 3.38459 1.66697 3.38459H1.68622C2.71886 3.38459 3.36175 2.65152 3.36175 1.7361ZM3.36175 15.8989V5.44246H0.129918V15.8989H3.36175ZM8.6343 9.94133V15.8989H5.38597C5.38597 15.8989 5.43269 6.38039 5.38597 5.37936H8.63399L8.61063 6.77787C9.07689 6.0499 9.91661 4.98036 11.8297 4.98036C14.1629 4.98036 15.9121 6.50511 15.9121 9.78191V15.8989H12.6584V9.94133C12.6584 8.5075 11.8536 7.77921 10.5704 7.77921C9.59083 7.77921 9.00744 8.43899 8.75111 9.07636C8.65735 9.30365 8.6343 9.62249 8.6343 9.94133Z" fill="#0078B5"/>
</svg>
